<?xml version="1.0" encoding="UTF-8" standalone="no"?>
<!DOCTYPE svg PUBLIC "-//W3C//DTD SVG 1.1//EN"
 "http://www.w3.org/Graphics/SVG/1.1/DTD/svg11.dtd">
<!-- Generated by graphviz version 2.40.1 (20161225.0304)
 -->
<!-- Title: g Pages: 1 -->
<svg width="928pt" height="751pt"
 viewBox="0.00 0.00 928.00 751.00" xmlns="http://www.w3.org/2000/svg" xmlns:xlink="http://www.w3.org/1999/xlink">
<g id="graph0" class="graph" transform="scale(1 1) rotate(0) translate(4 747)">
<title>g</title>
<polygon fill="#ffffff" stroke="transparent" points="-4,4 -4,-747 924,-747 924,4 -4,4"/>
<!-- n0x7fff00006610 -->
<g id="node1" class="node">
<title>n0x7fff00006610</title>
<polygon fill="none" stroke="#000000" points="0,-508.5 0,-742.5 104,-742.5 104,-508.5 0,-508.5"/>
<text text-anchor="middle" x="52" y="-725.7" font-family="Helvetica,Arial,sans-serif" font-size="16.00" fill="#000000">[0] 3 Glyphs</text>
<polyline fill="none" stroke="#000000" points="0,-716.5 104,-716.5 "/>
<text text-anchor="middle" x="52" y="-699.7" font-family="Helvetica,Arial,sans-serif" font-size="16.00" fill="#000000">0</text>
<polyline fill="none" stroke="#000000" points="0,-690.5 104,-690.5 "/>
<text text-anchor="middle" x="52" y="-673.7" font-family="Helvetica,Arial,sans-serif" font-size="16.00" fill="#000000">1</text>
<polyline fill="none" stroke="#000000" points="0,-664.5 104,-664.5 "/>
<text text-anchor="middle" x="52" y="-647.7" font-family="Helvetica,Arial,sans-serif" font-size="16.00" fill="#000000">2</text>
<polyline fill="none" stroke="#000000" points="0,-638.5 104,-638.5 "/>
<text text-anchor="middle" x="52" y="-621.7" font-family="Helvetica,Arial,sans-serif" font-size="16.00" fill="#000000">3</text>
<polyline fill="none" stroke="#000000" points="0,-612.5 104,-612.5 "/>
<text text-anchor="middle" x="52" y="-595.7" font-family="Helvetica,Arial,sans-serif" font-size="16.00" fill="#000000">4</text>
<polyline fill="none" stroke="#000000" points="0,-586.5 104,-586.5 "/>
<text text-anchor="middle" x="52" y="-569.7" font-family="Helvetica,Arial,sans-serif" font-size="16.00" fill="#000000">5</text>
<polyline fill="none" stroke="#000000" points="0,-560.5 104,-560.5 "/>
<text text-anchor="middle" x="52" y="-543.7" font-family="Helvetica,Arial,sans-serif" font-size="16.00" fill="#000000">6</text>
<polyline fill="none" stroke="#000000" points="0,-534.5 104,-534.5 "/>
<text text-anchor="middle" x="52" y="-517.7" font-family="Helvetica,Arial,sans-serif" font-size="16.00" fill="#000000">7</text>
</g>
<!-- n0x55e2ef046130 -->
<g id="node2" class="node">
<title>n0x55e2ef046130</title>
<polygon fill="none" stroke="#000000" points="140,-518.5 140,-622.5 244,-622.5 244,-518.5 140,-518.5"/>
<text text-anchor="middle" x="192" y="-605.7" font-family="Helvetica,Arial,sans-serif" font-size="16.00" fill="#000000">[1] 2 Glyphs</text>
<polyline fill="none" stroke="#000000" points="140,-596.5 244,-596.5 "/>
<text text-anchor="middle" x="192" y="-579.7" font-family="Helvetica,Arial,sans-serif" font-size="16.00" fill="#000000">0</text>
<polyline fill="none" stroke="#000000" points="140,-570.5 244,-570.5 "/>
<text text-anchor="middle" x="192" y="-553.7" font-family="Helvetica,Arial,sans-serif" font-size="16.00" fill="#000000">1</text>
<polyline fill="none" stroke="#000000" points="140,-544.5 244,-544.5 "/>
<text text-anchor="middle" x="192" y="-527.7" font-family="Helvetica,Arial,sans-serif" font-size="16.00" fill="#000000">2</text>
</g>
<!-- n0x7fff00006610&#45;&gt;n0x55e2ef046130 -->
<g id="edge1" class="edge">
<title>n0x7fff00006610:f5&#45;&gt;n0x55e2ef046130:base</title>
<path fill="none" stroke="#000000" d="M104,-573.5C122.3848,-573.5 119.7223,-597.2656 130.2143,-606.1777"/>
<polygon fill="#000000" stroke="#000000" points="129.4056,-609.5993 140,-609.5 131.656,-602.9709 129.4056,-609.5993"/>
</g>
<!-- n0x55e2ef0461d0 -->
<g id="node3" class="node">
<title>n0x55e2ef0461d0</title>
<polygon fill="none" stroke="#000000" points="140,-369.5 140,-499.5 244,-499.5 244,-369.5 140,-369.5"/>
<text text-anchor="middle" x="192" y="-482.7" font-family="Helvetica,Arial,sans-serif" font-size="16.00" fill="#000000">[1] 1 Glyphs</text>
<polyline fill="none" stroke="#000000" points="140,-473.5 244,-473.5 "/>
<text text-anchor="middle" x="192" y="-456.7" font-family="Helvetica,Arial,sans-serif" font-size="16.00" fill="#000000">0</text>
<polyline fill="none" stroke="#000000" points="140,-447.5 244,-447.5 "/>
<text text-anchor="middle" x="192" y="-430.7" font-family="Helvetica,Arial,sans-serif" font-size="16.00" fill="#000000">1</text>
<polyline fill="none" stroke="#000000" points="140,-421.5 244,-421.5 "/>
<text text-anchor="middle" x="192" y="-404.7" font-family="Helvetica,Arial,sans-serif" font-size="16.00" fill="#000000">2</text>
<polyline fill="none" stroke="#000000" points="140,-395.5 244,-395.5 "/>
<text text-anchor="middle" x="192" y="-378.7" font-family="Helvetica,Arial,sans-serif" font-size="16.00" fill="#000000">3</text>
</g>
<!-- n0x7fff00006610&#45;&gt;n0x55e2ef0461d0 -->
<g id="edge2" class="edge">
<title>n0x7fff00006610:f7&#45;&gt;n0x55e2ef0461d0:base</title>
<path fill="none" stroke="#000000" d="M104,-521.5C122.1312,-521.5 119.8332,-498.3945 130.3035,-489.73"/>
<polygon fill="#000000" stroke="#000000" points="131.6187,-492.981 140,-486.5 129.4064,-486.3398 131.6187,-492.981"/>
</g>
<!-- n0x55e2eef81840 -->
<g id="node4" class="node">
<title>n0x55e2eef81840</title>
<polygon fill="none" stroke="#000000" points="280,-440.5 280,-544.5 384,-544.5 384,-440.5 280,-440.5"/>
<text text-anchor="middle" x="332" y="-527.7" font-family="Helvetica,Arial,sans-serif" font-size="16.00" fill="#000000">[2] 2 Glyphs</text>
<polyline fill="none" stroke="#000000" points="280,-518.5 384,-518.5 "/>
<text text-anchor="middle" x="332" y="-501.7" font-family="Helvetica,Arial,sans-serif" font-size="16.00" fill="#000000">0</text>
<polyline fill="none" stroke="#000000" points="280,-492.5 384,-492.5 "/>
<text text-anchor="middle" x="332" y="-475.7" font-family="Helvetica,Arial,sans-serif" font-size="16.00" fill="#000000">1</text>
<polyline fill="none" stroke="#000000" points="280,-466.5 384,-466.5 "/>
<text text-anchor="middle" x="332" y="-449.7" font-family="Helvetica,Arial,sans-serif" font-size="16.00" fill="#000000">2</text>
</g>
<!-- n0x55e2ef046130&#45;&gt;n0x55e2eef81840 -->
<g id="edge3" class="edge">
<title>n0x55e2ef046130:f2&#45;&gt;n0x55e2eef81840:base</title>
<path fill="none" stroke="#000000" d="M244,-531.5C256,-531.5 261.25,-531.5 269.875,-531.5"/>
<polygon fill="#000000" stroke="#000000" points="270,-535.0001 280,-531.5 270,-528.0001 270,-535.0001"/>
</g>
<!-- n0x55e2ef04e590 -->
<g id="node11" class="node">
<title>n0x55e2ef04e590</title>
<polygon fill="none" stroke="#000000" points="280,-265.5 280,-395.5 384,-395.5 384,-265.5 280,-265.5"/>
<text text-anchor="middle" x="332" y="-378.7" font-family="Helvetica,Arial,sans-serif" font-size="16.00" fill="#000000">[2] 1 Glyphs</text>
<polyline fill="none" stroke="#000000" points="280,-369.5 384,-369.5 "/>
<text text-anchor="middle" x="332" y="-352.7" font-family="Helvetica,Arial,sans-serif" font-size="16.00" fill="#000000">0</text>
<polyline fill="none" stroke="#000000" points="280,-343.5 384,-343.5 "/>
<text text-anchor="middle" x="332" y="-326.7" font-family="Helvetica,Arial,sans-serif" font-size="16.00" fill="#000000">1</text>
<polyline fill="none" stroke="#000000" points="280,-317.5 384,-317.5 "/>
<text text-anchor="middle" x="332" y="-300.7" font-family="Helvetica,Arial,sans-serif" font-size="16.00" fill="#000000">2</text>
<polyline fill="none" stroke="#000000" points="280,-291.5 384,-291.5 "/>
<text text-anchor="middle" x="332" y="-274.7" font-family="Helvetica,Arial,sans-serif" font-size="16.00" fill="#000000">3</text>
</g>
<!-- n0x55e2ef0461d0&#45;&gt;n0x55e2ef04e590 -->
<g id="edge10" class="edge">
<title>n0x55e2ef0461d0:f3&#45;&gt;n0x55e2ef04e590:base</title>
<path fill="none" stroke="#000000" d="M244,-382.5C256,-382.5 261.25,-382.5 269.875,-382.5"/>
<polygon fill="#000000" stroke="#000000" points="270,-386.0001 280,-382.5 270,-379.0001 270,-386.0001"/>
</g>
<!-- n0x55e2eef81990 -->
<g id="node5" class="node">
<title>n0x55e2eef81990</title>
<polygon fill="none" stroke="#000000" points="420,-362.5 420,-466.5 524,-466.5 524,-362.5 420,-362.5"/>
<text text-anchor="middle" x="472" y="-449.7" font-family="Helvetica,Arial,sans-serif" font-size="16.00" fill="#000000">[3] 2 Glyphs</text>
<polyline fill="none" stroke="#000000" points="420,-440.5 524,-440.5 "/>
<text text-anchor="middle" x="472" y="-423.7" font-family="Helvetica,Arial,sans-serif" font-size="16.00" fill="#000000">0</text>
<polyline fill="none" stroke="#000000" points="420,-414.5 524,-414.5 "/>
<text text-anchor="middle" x="472" y="-397.7" font-family="Helvetica,Arial,sans-serif" font-size="16.00" fill="#000000">1</text>
<polyline fill="none" stroke="#000000" points="420,-388.5 524,-388.5 "/>
<text text-anchor="middle" x="472" y="-371.7" font-family="Helvetica,Arial,sans-serif" font-size="16.00" fill="#000000">2</text>
</g>
<!-- n0x55e2eef81840&#45;&gt;n0x55e2eef81990 -->
<g id="edge4" class="edge">
<title>n0x55e2eef81840:f2&#45;&gt;n0x55e2eef81990:base</title>
<path fill="none" stroke="#000000" d="M384,-453.5C396,-453.5 401.25,-453.5 409.875,-453.5"/>
<polygon fill="#000000" stroke="#000000" points="410,-457.0001 420,-453.5 410,-450.0001 410,-457.0001"/>
</g>
<!-- n0x55e2ef043ba0 -->
<g id="node6" class="node">
<title>n0x55e2ef043ba0</title>
<polygon fill="none" stroke="#000000" points="560,-206.5 560,-388.5 664,-388.5 664,-206.5 560,-206.5"/>
<text text-anchor="middle" x="612" y="-371.7" font-family="Helvetica,Arial,sans-serif" font-size="16.00" fill="#000000">[4] 2 Glyphs</text>
<polyline fill="none" stroke="#000000" points="560,-362.5 664,-362.5 "/>
<text text-anchor="middle" x="612" y="-345.7" font-family="Helvetica,Arial,sans-serif" font-size="16.00" fill="#000000">0</text>
<polyline fill="none" stroke="#000000" points="560,-336.5 664,-336.5 "/>
<text text-anchor="middle" x="612" y="-319.7" font-family="Helvetica,Arial,sans-serif" font-size="16.00" fill="#000000">1</text>
<polyline fill="none" stroke="#000000" points="560,-310.5 664,-310.5 "/>
<text text-anchor="middle" x="612" y="-293.7" font-family="Helvetica,Arial,sans-serif" font-size="16.00" fill="#000000">2</text>
<polyline fill="none" stroke="#000000" points="560,-284.5 664,-284.5 "/>
<text text-anchor="middle" x="612" y="-267.7" font-family="Helvetica,Arial,sans-serif" font-size="16.00" fill="#000000">3</text>
<polyline fill="none" stroke="#000000" points="560,-258.5 664,-258.5 "/>
<text text-anchor="middle" x="612" y="-241.7" font-family="Helvetica,Arial,sans-serif" font-size="16.00" fill="#000000">4</text>
<polyline fill="none" stroke="#000000" points="560,-232.5 664,-232.5 "/>
<text text-anchor="middle" x="612" y="-215.7" font-family="Helvetica,Arial,sans-serif" font-size="16.00" fill="#000000">5</text>
</g>
<!-- n0x55e2eef81990&#45;&gt;n0x55e2ef043ba0 -->
<g id="edge5" class="edge">
<title>n0x55e2eef81990:f2&#45;&gt;n0x55e2ef043ba0:base</title>
<path fill="none" stroke="#000000" d="M524,-375.5C536,-375.5 541.25,-375.5 549.875,-375.5"/>
<polygon fill="#000000" stroke="#000000" points="550,-379.0001 560,-375.5 550,-372.0001 550,-379.0001"/>
</g>
<!-- n0x55e2ef04d530 -->
<g id="node7" class="node">
<title>n0x55e2ef04d530</title>
<polygon fill="none" stroke="#000000" points="700,-279.5 700,-315.5 804,-315.5 804,-279.5 700,-279.5"/>
<text text-anchor="middle" x="752" y="-293.7" font-family="Helvetica,Arial,sans-serif" font-size="16.00" fill="#000000">[5] 1 Glyphs</text>
</g>
<!-- n0x55e2ef043ba0&#45;&gt;n0x55e2ef04d530 -->
<g id="edge6" class="edge">
<title>n0x55e2ef043ba0:f2&#45;&gt;n0x55e2ef04d530:base</title>
<path fill="none" stroke="#000000" d="M664,-297.5C672.3455,-297.5 681.1362,-297.5 689.8021,-297.5"/>
<polygon fill="#000000" stroke="#000000" points="689.8836,-301.0001 699.8836,-297.5 689.8836,-294.0001 689.8836,-301.0001"/>
</g>
<!-- n0x55e2ef04d620 -->
<g id="node8" class="node">
<title>n0x55e2ef04d620</title>
<polygon fill="none" stroke="#000000" points="700,-201.5 700,-237.5 804,-237.5 804,-201.5 700,-201.5"/>
<text text-anchor="middle" x="752" y="-215.7" font-family="Helvetica,Arial,sans-serif" font-size="16.00" fill="#000000">[5] 1 Glyphs</text>
</g>
<!-- n0x55e2ef043ba0&#45;&gt;n0x55e2ef04d620 -->
<g id="edge7" class="edge">
<title>n0x55e2ef043ba0:f5&#45;&gt;n0x55e2ef04d620:base</title>
<path fill="none" stroke="#000000" d="M664,-219.5C672.3455,-219.5 681.1362,-219.5 689.8021,-219.5"/>
<polygon fill="#000000" stroke="#000000" points="689.8836,-223.0001 699.8836,-219.5 689.8836,-216.0001 689.8836,-223.0001"/>
</g>
<!-- n0x55e2ef04d530_leafs -->
<g id="node9" class="node">
<title>n0x55e2ef04d530_leafs</title>
<polygon fill="none" stroke="#000000" points="840.5,-279.5 840.5,-315.5 919.5,-315.5 919.5,-279.5 840.5,-279.5"/>
<text text-anchor="middle" x="880" y="-293.7" font-family="Helvetica,Arial,sans-serif" font-size="16.00" fill="#000000">1 Leaf: c</text>
</g>
<!-- n0x55e2ef04d530&#45;&gt;n0x55e2ef04d530_leafs -->
<g id="edge8" class="edge">
<title>n0x55e2ef04d530:base&#45;&gt;n0x55e2ef04d530_leafs:base</title>
<path fill="none" stroke="#000000" d="M804.0625,-297.5C812.6245,-297.5 821.482,-297.5 829.9924,-297.5"/>
<polygon fill="#000000" stroke="#000000" points="830.1579,-301.0001 840.1579,-297.5 830.1578,-294.0001 830.1579,-301.0001"/>
</g>
<!-- n0x55e2ef04d620_leafs -->
<g id="node10" class="node">
<title>n0x55e2ef04d620_leafs</title>
<polygon fill="none" stroke="#000000" points="840,-201.5 840,-237.5 920,-237.5 920,-201.5 840,-201.5"/>
<text text-anchor="middle" x="880" y="-215.7" font-family="Helvetica,Arial,sans-serif" font-size="16.00" fill="#000000">1 Leaf: a</text>
</g>
<!-- n0x55e2ef04d620&#45;&gt;n0x55e2ef04d620_leafs -->
<g id="edge9" class="edge">
<title>n0x55e2ef04d620:base&#45;&gt;n0x55e2ef04d620_leafs:base</title>
<path fill="none" stroke="#000000" d="M804.0625,-219.5C812.5261,-219.5 821.2784,-219.5 829.6988,-219.5"/>
<polygon fill="#000000" stroke="#000000" points="829.7635,-223.0001 839.7635,-219.5 829.7634,-216.0001 829.7635,-223.0001"/>
</g>
<!-- n0x55e2ef04e440 -->
<g id="node12" class="node">
<title>n0x55e2ef04e440</title>
<polygon fill="none" stroke="#000000" points="420,-161.5 420,-291.5 524,-291.5 524,-161.5 420,-161.5"/>
<text text-anchor="middle" x="472" y="-274.7" font-family="Helvetica,Arial,sans-serif" font-size="16.00" fill="#000000">[3] 1 Glyphs</text>
<polyline fill="none" stroke="#000000" points="420,-265.5 524,-265.5 "/>
<text text-anchor="middle" x="472" y="-248.7" font-family="Helvetica,Arial,sans-serif" font-size="16.00" fill="#000000">0</text>
<polyline fill="none" stroke="#000000" points="420,-239.5 524,-239.5 "/>
<text text-anchor="middle" x="472" y="-222.7" font-family="Helvetica,Arial,sans-serif" font-size="16.00" fill="#000000">1</text>
<polyline fill="none" stroke="#000000" points="420,-213.5 524,-213.5 "/>
<text text-anchor="middle" x="472" y="-196.7" font-family="Helvetica,Arial,sans-serif" font-size="16.00" fill="#000000">2</text>
<polyline fill="none" stroke="#000000" points="420,-187.5 524,-187.5 "/>
<text text-anchor="middle" x="472" y="-170.7" font-family="Helvetica,Arial,sans-serif" font-size="16.00" fill="#000000">3</text>
</g>
<!-- n0x55e2ef04e590&#45;&gt;n0x55e2ef04e440 -->
<g id="edge11" class="edge">
<title>n0x55e2ef04e590:f3&#45;&gt;n0x55e2ef04e440:base</title>
<path fill="none" stroke="#000000" d="M384,-278.5C396,-278.5 401.25,-278.5 409.875,-278.5"/>
<polygon fill="#000000" stroke="#000000" points="410,-282.0001 420,-278.5 410,-275.0001 410,-282.0001"/>
</g>
<!-- n0x55e2ef04e2f0 -->
<g id="node13" class="node">
<title>n0x55e2ef04e2f0</title>
<polygon fill="none" stroke="#000000" points="560,-5.5 560,-187.5 664,-187.5 664,-5.5 560,-5.5"/>
<text text-anchor="middle" x="612" y="-170.7" font-family="Helvetica,Arial,sans-serif" font-size="16.00" fill="#000000">[4] 1 Glyphs</text>
<polyline fill="none" stroke="#000000" points="560,-161.5 664,-161.5 "/>
<text text-anchor="middle" x="612" y="-144.7" font-family="Helvetica,Arial,sans-serif" font-size="16.00" fill="#000000">0</text>
<polyline fill="none" stroke="#000000" points="560,-135.5 664,-135.5 "/>
<text text-anchor="middle" x="612" y="-118.7" font-family="Helvetica,Arial,sans-serif" font-size="16.00" fill="#000000">1</text>
<polyline fill="none" stroke="#000000" points="560,-109.5 664,-109.5 "/>
<text text-anchor="middle" x="612" y="-92.7" font-family="Helvetica,Arial,sans-serif" font-size="16.00" fill="#000000">2</text>
<polyline fill="none" stroke="#000000" points="560,-83.5 664,-83.5 "/>
<text text-anchor="middle" x="612" y="-66.7" font-family="Helvetica,Arial,sans-serif" font-size="16.00" fill="#000000">3</text>
<polyline fill="none" stroke="#000000" points="560,-57.5 664,-57.5 "/>
<text text-anchor="middle" x="612" y="-40.7" font-family="Helvetica,Arial,sans-serif" font-size="16.00" fill="#000000">4</text>
<polyline fill="none" stroke="#000000" points="560,-31.5 664,-31.5 "/>
<text text-anchor="middle" x="612" y="-14.7" font-family="Helvetica,Arial,sans-serif" font-size="16.00" fill="#000000">5</text>
</g>
<!-- n0x55e2ef04e440&#45;&gt;n0x55e2ef04e2f0 -->
<g id="edge12" class="edge">
<title>n0x55e2ef04e440:f3&#45;&gt;n0x55e2ef04e2f0:base</title>
<path fill="none" stroke="#000000" d="M524,-174.5C536,-174.5 541.25,-174.5 549.875,-174.5"/>
<polygon fill="#000000" stroke="#000000" points="550,-178.0001 560,-174.5 550,-171.0001 550,-178.0001"/>
</g>
<!-- n0x55e2ef045b40 -->
<g id="node14" class="node">
<title>n0x55e2ef045b40</title>
<polygon fill="none" stroke="#000000" points="700,-.5 700,-36.5 804,-36.5 804,-.5 700,-.5"/>
<text text-anchor="middle" x="752" y="-14.7" font-family="Helvetica,Arial,sans-serif" font-size="16.00" fill="#000000">[5] 1 Glyphs</text>
</g>
<!-- n0x55e2ef04e2f0&#45;&gt;n0x55e2ef045b40 -->
<g id="edge13" class="edge">
<title>n0x55e2ef04e2f0:f5&#45;&gt;n0x55e2ef045b40:base</title>
<path fill="none" stroke="#000000" d="M664,-18.5C672.3455,-18.5 681.1362,-18.5 689.8021,-18.5"/>
<polygon fill="#000000" stroke="#000000" points="689.8836,-22.0001 699.8836,-18.5 689.8836,-15.0001 689.8836,-22.0001"/>
</g>
<!-- n0x55e2ef045b40_leafs -->
<g id="node15" class="node">
<title>n0x55e2ef045b40_leafs</title>
<polygon fill="none" stroke="#000000" points="840,-.5 840,-36.5 920,-36.5 920,-.5 840,-.5"/>
<text text-anchor="middle" x="880" y="-14.7" font-family="Helvetica,Arial,sans-serif" font-size="16.00" fill="#000000">1 Leaf: b</text>
</g>
<!-- n0x55e2ef045b40&#45;&gt;n0x55e2ef045b40_leafs -->
<g id="edge14" class="edge">
<title>n0x55e2ef045b40:base&#45;&gt;n0x55e2ef045b40_leafs:base</title>
<path fill="none" stroke="#000000" d="M804.0625,-18.5C812.5261,-18.5 821.2784,-18.5 829.6988,-18.5"/>
<polygon fill="#000000" stroke="#000000" points="829.7635,-22.0001 839.7635,-18.5 829.7634,-15.0001 829.7635,-22.0001"/>
</g>
</g>
</svg>
